<svg width="1175" height="301" viewBox="0 0 1175 301" fill="none" xmlns="http://www.w3.org/2000/svg">
<path d="M408.32 50.8599C422.787 50.8599 433.894 53.4265 441.64 58.5599C449.387 63.5999 453.26 71.9065 453.26 83.4799C453.26 95.1465 449.34 103.593 441.5 108.82C433.66 113.953 422.46 116.52 407.9 116.52H401.04V149H379.2V53.3799C383.96 52.4465 389 51.7932 394.32 51.4199C399.64 51.0465 404.307 50.8599 408.32 50.8599ZM409.72 69.4799C408.134 69.4799 406.547 69.5265 404.96 69.6199C403.467 69.7132 402.16 69.8065 401.04 69.8999V97.8999H407.9C415.46 97.8999 421.154 96.8732 424.98 94.8199C428.807 92.7665 430.72 88.9399 430.72 83.3399C430.72 80.6332 430.207 78.3932 429.18 76.6199C428.247 74.8465 426.847 73.4465 424.98 72.4199C423.207 71.2999 421.014 70.5532 418.4 70.1799C415.787 69.7132 412.894 69.4799 409.72 69.4799Z" fill="#292929"/>
<path d="M493.303 134.44C495.357 134.44 497.317 134.393 499.183 134.3C501.05 134.207 502.543 134.067 503.663 133.88V118.06C502.823 117.873 501.563 117.687 499.883 117.5C498.203 117.313 496.663 117.22 495.263 117.22C493.303 117.22 491.437 117.36 489.663 117.64C487.983 117.827 486.49 118.247 485.183 118.9C483.877 119.553 482.85 120.44 482.103 121.56C481.357 122.68 480.983 124.08 480.983 125.76C480.983 129.027 482.057 131.313 484.203 132.62C486.443 133.833 489.477 134.44 493.303 134.44ZM491.623 73.3999C497.783 73.3999 502.917 74.0999 507.023 75.4999C511.13 76.8999 514.397 78.9065 516.823 81.5199C519.343 84.1332 521.117 87.3065 522.143 91.0399C523.17 94.7732 523.683 98.9265 523.683 103.5V146.9C520.697 147.553 516.543 148.3 511.223 149.14C505.903 150.073 499.463 150.54 491.903 150.54C487.143 150.54 482.803 150.12 478.883 149.28C475.057 148.44 471.743 147.087 468.943 145.22C466.143 143.26 463.997 140.74 462.503 137.66C461.01 134.58 460.263 130.8 460.263 126.32C460.263 122.027 461.103 118.387 462.783 115.4C464.557 112.413 466.89 110.033 469.783 108.26C472.677 106.487 475.99 105.227 479.723 104.48C483.457 103.64 487.33 103.22 491.343 103.22C494.05 103.22 496.43 103.36 498.483 103.64C500.63 103.827 502.357 104.107 503.663 104.48V102.52C503.663 98.9732 502.59 96.1265 500.443 93.9799C498.297 91.8332 494.563 90.7599 489.243 90.7599C485.697 90.7599 482.197 91.0399 478.743 91.5999C475.29 92.0665 472.303 92.7665 469.783 93.6999L467.123 76.8999C468.337 76.5265 469.83 76.1532 471.603 75.7799C473.47 75.3132 475.477 74.9399 477.623 74.6599C479.77 74.2865 482.01 74.0065 484.343 73.8199C486.77 73.5399 489.197 73.3999 491.623 73.3999Z" fill="#292929"/>
<path d="M585.979 106.72C584.112 113.813 582.106 120.86 579.959 127.86C577.906 134.86 575.712 141.907 573.379 149H557.139C555.459 145.08 553.639 140.413 551.679 135C549.719 129.587 547.666 123.707 545.519 117.36C543.466 110.92 541.319 104.153 539.079 97.0599C536.932 89.8732 534.832 82.6399 532.779 75.3599H554.759C555.506 78.7199 556.299 82.4065 557.139 86.4199C558.072 90.3399 559.006 94.3999 559.939 98.5999C560.966 102.8 561.992 107.047 563.019 111.34C564.139 115.54 565.259 119.6 566.379 123.52C567.592 119.413 568.759 115.213 569.879 110.92C571.092 106.627 572.212 102.427 573.239 98.3199C574.359 94.1199 575.386 90.1065 576.319 86.2799C577.346 82.3599 578.232 78.7199 578.979 75.3599H594.099C594.846 78.7199 595.686 82.3599 596.619 86.2799C597.552 90.1065 598.532 94.1199 599.559 98.3199C600.586 102.427 601.659 106.627 602.779 110.92C603.899 115.213 605.066 119.413 606.279 123.52C607.399 119.6 608.519 115.54 609.639 111.34C610.759 107.047 611.786 102.8 612.719 98.5999C613.746 94.3999 614.679 90.3399 615.519 86.4199C616.452 82.4065 617.292 78.7199 618.039 75.3599H639.739C637.686 82.6399 635.539 89.8732 633.299 97.0599C631.152 104.153 629.006 110.92 626.859 117.36C624.806 123.707 622.752 129.587 620.699 135C618.739 140.413 616.919 145.08 615.239 149H598.999C596.666 141.907 594.379 134.86 592.139 127.86C589.899 120.86 587.846 113.813 585.979 106.72Z" fill="#292929"/>
<path d="M672.104 134.02C675.931 134.02 678.638 133.647 680.224 132.9C681.811 132.153 682.604 130.707 682.604 128.56C682.604 126.88 681.578 125.433 679.524 124.22C677.471 122.913 674.344 121.467 670.144 119.88C666.878 118.667 663.891 117.407 661.184 116.1C658.571 114.793 656.331 113.253 654.464 111.48C652.598 109.613 651.151 107.42 650.124 104.9C649.098 102.38 648.584 99.3465 648.584 95.7999C648.584 88.8932 651.151 83.4332 656.284 79.4199C661.418 75.4065 668.464 73.3999 677.424 73.3999C681.904 73.3999 686.198 73.8199 690.304 74.6599C694.411 75.4065 697.678 76.2465 700.104 77.1799L696.464 93.4199C694.038 92.5799 691.378 91.8332 688.484 91.1799C685.684 90.5265 682.511 90.1999 678.964 90.1999C672.431 90.1999 669.164 92.0199 669.164 95.6599C669.164 96.4999 669.304 97.2465 669.584 97.8999C669.864 98.5532 670.424 99.2065 671.264 99.8599C672.104 100.42 673.224 101.073 674.624 101.82C676.118 102.473 677.984 103.22 680.224 104.06C684.798 105.74 688.578 107.42 691.564 109.1C694.551 110.687 696.884 112.46 698.564 114.42C700.338 116.287 701.551 118.387 702.204 120.72C702.951 123.053 703.324 125.76 703.324 128.84C703.324 136.12 700.571 141.627 695.064 145.36C689.651 149.093 681.951 150.96 671.964 150.96C665.431 150.96 659.971 150.4 655.584 149.28C651.291 148.16 648.304 147.227 646.624 146.48L650.124 129.54C653.671 130.94 657.311 132.06 661.044 132.9C664.778 133.647 668.464 134.02 672.104 134.02Z" fill="#292929"/>
<path d="M747.646 123.24C747.646 119.693 748.16 116.473 749.186 113.58C750.213 110.593 751.566 107.933 753.246 105.6C755.02 103.173 757.026 101.073 759.266 99.2999C761.6 97.4332 764.026 95.7999 766.546 94.3999C764.306 91.6932 762.3 88.7999 760.526 85.7199C758.753 82.5465 757.866 79.0932 757.866 75.3599C757.866 67.1465 760.34 60.8465 765.286 56.4599C770.233 51.9799 777.046 49.7399 785.726 49.7399C790.113 49.7399 793.94 50.3465 797.206 51.5599C800.473 52.6799 803.18 54.2665 805.326 56.3199C807.566 58.2799 809.246 60.6132 810.366 63.3199C811.486 65.9332 812.046 68.7799 812.046 71.8599C812.046 77.5532 810.413 82.6399 807.146 87.1199C803.973 91.5065 799.913 95.1932 794.966 98.1799L810.646 113.86C811.486 111.993 812.28 109.66 813.026 106.86C813.866 103.967 814.38 101.447 814.566 99.2999L831.926 101.54C831.74 103.313 831.413 105.273 830.946 107.42C830.48 109.473 829.873 111.573 829.126 113.72C828.473 115.867 827.68 118.013 826.746 120.16C825.906 122.307 824.973 124.267 823.946 126.04C826.933 129.4 829.826 133.087 832.626 137.1C835.52 141.02 837.993 144.987 840.046 149H818.626C817.88 147.787 816.853 146.293 815.546 144.52C814.24 142.653 812.933 141.067 811.626 139.76C807.893 142.747 803.553 145.267 798.606 147.32C793.66 149.28 788.106 150.26 781.946 150.26C775.413 150.26 769.953 149.467 765.566 147.88C761.18 146.2 757.633 144.1 754.926 141.58C752.313 138.967 750.446 136.073 749.326 132.9C748.206 129.633 747.646 126.413 747.646 123.24ZM767.106 121.14C767.106 122.54 767.386 123.987 767.946 125.48C768.506 126.973 769.393 128.373 770.606 129.68C771.913 130.893 773.546 131.92 775.506 132.76C777.466 133.507 779.846 133.88 782.646 133.88C786.566 133.88 789.973 133.367 792.866 132.34C795.853 131.313 798.326 129.96 800.286 128.28L777.886 105.74C776.58 106.393 775.273 107.187 773.966 108.12C772.753 109.053 771.633 110.173 770.606 111.48C769.58 112.693 768.74 114.093 768.086 115.68C767.433 117.267 767.106 119.087 767.106 121.14ZM794.266 72.8399C794.266 70.6932 793.566 68.7799 792.166 67.0999C790.766 65.4199 788.433 64.5799 785.166 64.5799C782.18 64.5799 779.846 65.5132 778.166 67.3799C776.58 69.1532 775.786 71.4865 775.786 74.3799C775.786 76.8065 776.486 79.1865 777.886 81.5199C779.286 83.7599 781.106 85.9065 783.346 87.9599C786.333 86.2799 788.9 84.2732 791.046 81.9399C793.193 79.6065 794.266 76.5732 794.266 72.8399Z" fill="#292929"/>
<path d="M958.25 51.9799V70.5999H928.99V149H907.15V70.5999H877.89V51.9799H958.25Z" fill="#292929"/>
<path d="M988.499 134.44C990.552 134.44 992.512 134.393 994.379 134.3C996.245 134.207 997.739 134.067 998.859 133.88V118.06C998.019 117.873 996.759 117.687 995.079 117.5C993.399 117.313 991.859 117.22 990.459 117.22C988.499 117.22 986.632 117.36 984.859 117.64C983.179 117.827 981.685 118.247 980.379 118.9C979.072 119.553 978.045 120.44 977.299 121.56C976.552 122.68 976.179 124.08 976.179 125.76C976.179 129.027 977.252 131.313 979.399 132.62C981.639 133.833 984.672 134.44 988.499 134.44ZM986.819 73.3999C992.979 73.3999 998.112 74.0999 1002.22 75.4999C1006.33 76.8999 1009.59 78.9065 1012.02 81.5199C1014.54 84.1332 1016.31 87.3065 1017.34 91.0399C1018.37 94.7732 1018.88 98.9265 1018.88 103.5V146.9C1015.89 147.553 1011.74 148.3 1006.42 149.14C1001.1 150.073 994.659 150.54 987.099 150.54C982.339 150.54 977.999 150.12 974.079 149.28C970.252 148.44 966.939 147.087 964.139 145.22C961.339 143.26 959.192 140.74 957.699 137.66C956.205 134.58 955.459 130.8 955.459 126.32C955.459 122.027 956.299 118.387 957.979 115.4C959.752 112.413 962.085 110.033 964.979 108.26C967.872 106.487 971.185 105.227 974.919 104.48C978.652 103.64 982.525 103.22 986.539 103.22C989.245 103.22 991.625 103.36 993.679 103.64C995.825 103.827 997.552 104.107 998.859 104.48V102.52C998.859 98.9732 997.785 96.1265 995.639 93.9799C993.492 91.8332 989.759 90.7599 984.439 90.7599C980.892 90.7599 977.392 91.0399 973.939 91.5999C970.485 92.0665 967.499 92.7665 964.979 93.6999L962.319 76.8999C963.532 76.5265 965.025 76.1532 966.799 75.7799C968.665 75.3132 970.672 74.9399 972.819 74.6599C974.965 74.2865 977.205 74.0065 979.539 73.8199C981.965 73.5399 984.392 73.3999 986.819 73.3999Z" fill="#292929"/>
<path d="M1058.6 149H1037.74V75.3599H1058.6V149ZM1060.56 54.0799C1060.56 57.9065 1059.3 60.9399 1056.78 63.1799C1054.35 65.3265 1051.46 66.3999 1048.1 66.3999C1044.74 66.3999 1041.8 65.3265 1039.28 63.1799C1036.85 60.9399 1035.64 57.9065 1035.64 54.0799C1035.64 50.2532 1036.85 47.2665 1039.28 45.1199C1041.8 42.8799 1044.74 41.7599 1048.1 41.7599C1051.46 41.7599 1054.35 42.8799 1056.78 45.1199C1059.3 47.2665 1060.56 50.2532 1060.56 54.0799Z" fill="#292929"/>
<path d="M1107.61 150.4C1101.54 150.307 1096.6 149.653 1092.77 148.44C1089.04 147.227 1086.05 145.547 1083.81 143.4C1081.66 141.16 1080.17 138.5 1079.33 135.42C1078.58 132.247 1078.21 128.7 1078.21 124.78V43.7199L1099.07 40.3599V120.58C1099.07 122.447 1099.21 124.127 1099.49 125.62C1099.77 127.113 1100.28 128.373 1101.03 129.4C1101.87 130.427 1103.04 131.267 1104.53 131.92C1106.02 132.573 1108.03 132.993 1110.55 133.18L1107.61 150.4Z" fill="#292929"/>
<path d="M1143.65 134.02C1147.47 134.02 1150.18 133.647 1151.77 132.9C1153.35 132.153 1154.15 130.707 1154.15 128.56C1154.15 126.88 1153.12 125.433 1151.07 124.22C1149.01 122.913 1145.89 121.467 1141.69 119.88C1138.42 118.667 1135.43 117.407 1132.73 116.1C1130.11 114.793 1127.87 113.253 1126.01 111.48C1124.14 109.613 1122.69 107.42 1121.67 104.9C1120.64 102.38 1120.13 99.3465 1120.13 95.7999C1120.13 88.8932 1122.69 83.4332 1127.83 79.4199C1132.96 75.4065 1140.01 73.3999 1148.97 73.3999C1153.45 73.3999 1157.74 73.8199 1161.85 74.6599C1165.95 75.4065 1169.22 76.2465 1171.65 77.1799L1168.01 93.4199C1165.58 92.5799 1162.92 91.8332 1160.03 91.1799C1157.23 90.5265 1154.05 90.1999 1150.51 90.1999C1143.97 90.1999 1140.71 92.0199 1140.71 95.6599C1140.71 96.4999 1140.85 97.2465 1141.13 97.8999C1141.41 98.5532 1141.97 99.2065 1142.81 99.8599C1143.65 100.42 1144.77 101.073 1146.17 101.82C1147.66 102.473 1149.53 103.22 1151.77 104.06C1156.34 105.74 1160.12 107.42 1163.11 109.1C1166.09 110.687 1168.43 112.46 1170.11 114.42C1171.88 116.287 1173.09 118.387 1173.75 120.72C1174.49 123.053 1174.87 125.76 1174.87 128.84C1174.87 136.12 1172.11 141.627 1166.61 145.36C1161.19 149.093 1153.49 150.96 1143.51 150.96C1136.97 150.96 1131.51 150.4 1127.13 149.28C1122.83 148.16 1119.85 147.227 1118.17 146.48L1121.67 129.54C1125.21 130.94 1128.85 132.06 1132.59 132.9C1136.32 133.647 1140.01 134.02 1143.65 134.02Z" fill="#292929"/>
<path d="M403.476 267.3V272.985H375V226.083H381.624V267.3H403.476Z" fill="#292929" fill-opacity="0.7"/>
<path d="M418.406 249.5C418.406 245.484 418.998 241.942 420.182 238.874C421.411 235.806 423.05 233.257 425.099 231.227C427.193 229.151 429.606 227.594 432.337 226.557C435.114 225.519 438.051 225 441.147 225C444.197 225 447.065 225.519 449.751 226.557C452.482 227.594 454.873 229.151 456.921 231.227C458.97 233.257 460.586 235.806 461.77 238.874C462.999 241.942 463.613 245.484 463.613 249.5C463.613 253.516 462.999 257.058 461.77 260.126C460.586 263.194 458.97 265.766 456.921 267.841C454.873 269.872 452.482 271.406 449.751 272.443C447.065 273.481 444.197 274 441.147 274C438.051 274 435.114 273.481 432.337 272.443C429.606 271.406 427.193 269.872 425.099 267.841C423.05 265.766 421.411 263.194 420.182 260.126C418.998 257.058 418.406 253.516 418.406 249.5ZM425.372 249.5C425.372 252.343 425.736 254.937 426.465 257.283C427.193 259.584 428.217 261.547 429.537 263.171C430.903 264.796 432.542 266.059 434.454 266.961C436.412 267.819 438.597 268.247 441.01 268.247C443.423 268.247 445.585 267.819 447.497 266.961C449.409 266.059 451.026 264.796 452.346 263.171C453.712 261.547 454.759 259.584 455.487 257.283C456.216 254.937 456.58 252.343 456.58 249.5C456.58 246.657 456.216 244.086 455.487 241.785C454.759 239.438 453.712 237.453 452.346 235.829C451.026 234.204 449.409 232.964 447.497 232.106C445.585 231.204 443.423 230.753 441.01 230.753C438.597 230.753 436.412 231.204 434.454 232.106C432.542 232.964 430.903 234.204 429.537 235.829C428.217 237.453 427.193 239.438 426.465 241.785C425.736 244.086 425.372 246.657 425.372 249.5Z" fill="#292929" fill-opacity="0.7"/>
<path d="M523.552 226.083C521.822 231.046 520.16 235.648 518.567 239.89C517.019 244.086 515.494 248.079 513.991 251.869C512.489 255.659 510.987 259.291 509.484 262.765C508.027 266.194 506.525 269.601 504.977 272.985H498.763C497.215 269.601 495.69 266.194 494.188 262.765C492.731 259.291 491.228 255.659 489.68 251.869C488.178 248.079 486.63 244.086 485.037 239.89C483.443 235.648 481.805 231.046 480.12 226.083H487.427C489.885 233.212 492.298 240.07 494.666 246.657C497.033 253.245 499.469 259.426 501.972 265.202C504.476 259.471 506.912 253.313 509.279 246.725C511.647 240.093 514.037 233.212 516.45 226.083H523.552Z" fill="#292929" fill-opacity="0.7"/>
<path d="M543.099 272.985V226.083H571.985V231.7H549.723V245.642H569.527V251.124H549.723V267.367H573.693V272.985H543.099Z" fill="#292929" fill-opacity="0.7"/>
<path d="M655.484 272.985C654.71 270.954 653.982 268.969 653.299 267.029C652.616 265.044 651.91 263.036 651.182 261.006H629.739L625.437 272.985H618.54C620.361 268.022 622.068 263.442 623.662 259.246C625.255 255.005 626.803 250.989 628.305 247.199C629.853 243.409 631.378 239.799 632.881 236.37C634.383 232.896 635.954 229.467 637.592 226.083H643.67C645.309 229.467 646.88 232.896 648.382 236.37C649.884 239.799 651.387 243.409 652.889 247.199C654.437 250.989 656.008 255.005 657.601 259.246C659.194 263.442 660.902 268.022 662.723 272.985H655.484ZM649.27 255.591C647.813 251.666 646.356 247.876 644.899 244.221C643.488 240.521 642.008 236.979 640.461 233.595C638.867 236.979 637.342 240.521 635.885 244.221C634.474 247.876 633.063 251.666 631.651 255.591H649.27Z" fill="#292929" fill-opacity="0.7"/>
<path d="M706.803 241.175C704.891 247.221 702.957 252.816 700.999 257.96C699.041 263.104 697.084 268.112 695.126 272.985H688.502C686.089 266.081 683.95 258.795 682.083 251.124C680.262 243.454 678.555 235.107 676.961 226.083H683.927C684.564 229.602 685.224 233.122 685.907 236.641C686.59 240.16 687.296 243.589 688.024 246.928C688.753 250.222 689.481 253.38 690.209 256.403C690.938 259.426 691.689 262.224 692.463 264.796C694.284 260.058 696.219 254.869 698.267 249.229C700.316 243.544 702.228 237.679 704.004 231.633H709.74C711.515 237.679 713.45 243.544 715.544 249.229C717.639 254.869 719.596 260.058 721.417 264.796C722.146 262.269 722.874 259.494 723.602 256.471C724.331 253.448 725.037 250.29 725.719 246.996C726.448 243.657 727.153 240.228 727.836 236.709C728.519 233.144 729.179 229.602 729.817 226.083H736.577C734.938 235.107 733.186 243.454 731.319 251.124C729.498 258.795 727.404 266.081 725.037 272.985H718.413C716.409 268.112 714.452 263.104 712.54 257.96C710.628 252.816 708.716 247.221 706.803 241.175Z" fill="#292929" fill-opacity="0.7"/>
<path d="M787.734 272.985C786.961 270.954 786.232 268.969 785.549 267.029C784.866 265.044 784.161 263.036 783.432 261.006H761.99L757.688 272.985H750.79C752.611 268.022 754.319 263.442 755.912 259.246C757.505 255.005 759.053 250.989 760.556 247.199C762.104 243.409 763.629 239.799 765.131 236.37C766.633 232.896 768.204 229.467 769.843 226.083H775.921C777.559 229.467 779.13 232.896 780.632 236.37C782.135 239.799 783.637 243.409 785.14 247.199C786.687 250.989 788.258 255.005 789.851 259.246C791.445 263.442 793.152 268.022 794.973 272.985H787.734ZM781.52 255.591C780.063 251.666 778.607 247.876 777.15 244.221C775.738 240.521 774.259 236.979 772.711 233.595C771.118 236.979 769.592 240.521 768.136 244.221C766.724 247.876 765.313 251.666 763.902 255.591H781.52Z" fill="#292929" fill-opacity="0.7"/>
<path d="M814.373 226.083H820.997V272.985H814.373V226.083Z" fill="#292929" fill-opacity="0.7"/>
<path d="M877.305 226.083V231.768H862.418V272.985H855.794V231.768H840.907V226.083H877.305Z" fill="#292929" fill-opacity="0.7"/>
<path d="M908.269 268.315C915.189 268.315 918.648 265.969 918.648 261.276C918.648 259.832 918.33 258.614 917.692 257.622C917.101 256.584 916.281 255.704 915.234 254.982C914.187 254.215 912.981 253.561 911.615 253.019C910.294 252.478 908.883 251.936 907.381 251.395C905.651 250.808 904.012 250.154 902.464 249.432C900.916 248.665 899.573 247.785 898.435 246.793C897.297 245.755 896.386 244.537 895.703 243.138C895.066 241.739 894.747 240.047 894.747 238.062C894.747 233.956 896.159 230.753 898.981 228.452C901.804 226.151 905.696 225 910.659 225C913.527 225 916.122 225.316 918.444 225.948C920.811 226.534 922.541 227.188 923.634 227.91L921.517 233.257C920.561 232.67 919.126 232.106 917.214 231.565C915.348 230.978 913.163 230.685 910.659 230.685C909.384 230.685 908.2 230.82 907.108 231.091C906.015 231.362 905.059 231.768 904.24 232.309C903.42 232.851 902.76 233.55 902.259 234.407C901.804 235.22 901.576 236.19 901.576 237.318C901.576 238.581 901.827 239.641 902.327 240.499C902.828 241.356 903.534 242.123 904.444 242.8C905.355 243.431 906.402 244.018 907.586 244.559C908.815 245.101 910.158 245.642 911.615 246.184C913.663 246.996 915.53 247.808 917.214 248.62C918.944 249.432 920.424 250.402 921.653 251.53C922.928 252.658 923.907 254.012 924.59 255.591C925.272 257.125 925.614 258.998 925.614 261.209C925.614 265.314 924.089 268.473 921.039 270.684C918.034 272.895 913.777 274 908.269 274C906.402 274 904.672 273.865 903.079 273.594C901.531 273.368 900.142 273.098 898.913 272.782C897.684 272.421 896.614 272.06 895.703 271.699C894.838 271.293 894.156 270.954 893.655 270.684L895.635 265.269C896.682 265.856 898.276 266.51 900.415 267.232C902.555 267.954 905.173 268.315 908.269 268.315Z" fill="#292929" fill-opacity="0.7"/>
<path d="M1005.15 226.083H1011.77V272.985H1005.15V251.327H981.998V272.985H975.374V226.083H981.998V245.642H1005.15V226.083Z" fill="#292929" fill-opacity="0.7"/>
<path d="M1036.5 272.985V226.083H1065.38V231.7H1043.12V245.642H1062.93V251.124H1043.12V267.367H1067.09V272.985H1036.5Z" fill="#292929" fill-opacity="0.7"/>
<path d="M1111.63 253.358C1112.36 254.26 1113.27 255.456 1114.37 256.945C1115.5 258.389 1116.67 260.013 1117.85 261.818C1119.03 263.577 1120.19 265.427 1121.33 267.367C1122.52 269.308 1123.52 271.18 1124.34 272.985H1117.1C1116.19 271.27 1115.19 269.533 1114.09 267.773C1113.05 266.014 1111.98 264.344 1110.88 262.765C1109.79 261.141 1108.7 259.629 1107.61 258.231C1106.56 256.832 1105.6 255.614 1104.74 254.576C1104.15 254.621 1103.53 254.644 1102.89 254.644C1102.3 254.644 1101.69 254.644 1101.05 254.644H1095.11V272.985H1088.48V226.76C1090.35 226.308 1092.42 226.015 1094.7 225.88C1097.02 225.699 1099.14 225.609 1101.05 225.609C1107.7 225.609 1112.75 226.85 1116.21 229.331C1119.72 231.813 1121.47 235.513 1121.47 240.431C1121.47 243.544 1120.63 246.206 1118.94 248.417C1117.3 250.628 1114.87 252.275 1111.63 253.358ZM1101.6 231.362C1098.77 231.362 1096.61 231.43 1095.11 231.565V249.229H1099.82C1102.1 249.229 1104.15 249.116 1105.97 248.891C1107.79 248.665 1109.31 248.237 1110.54 247.605C1111.82 246.973 1112.8 246.093 1113.48 244.965C1114.16 243.792 1114.5 242.258 1114.5 240.363C1114.5 238.604 1114.16 237.137 1113.48 235.964C1112.8 234.791 1111.86 233.866 1110.68 233.189C1109.54 232.512 1108.17 232.039 1106.58 231.768C1105.03 231.497 1103.37 231.362 1101.6 231.362Z" fill="#292929" fill-opacity="0.7"/>
<path d="M1144.41 272.985V226.083H1173.29V231.7H1151.03V245.642H1170.83V251.124H1151.03V267.367H1175V272.985H1144.41Z" fill="#292929" fill-opacity="0.7"/>
<path d="M150.5 301C233.619 301 301 233.619 301 150.5C301 67.3811 233.619 0 150.5 0C67.3811 0 0 67.3811 0 150.5C0 233.619 67.3811 301 150.5 301Z" fill="#4A7AFF"/>
<path d="M202.123 291.912C259.815 270.846 301 215.483 301 150.5C301 142.833 300.427 135.3 299.32 127.94L246.628 75.2476L213.467 111.645L154.883 53.0618L53.4351 140.377L74.7485 161.69L73.4364 163.226L202.123 291.912Z" fill="#0053BF"/>
<path d="M106.055 264.055C141.291 264.055 173.296 250.228 196.943 227.705L188.765 214.892L132.817 189.642C127.657 187.313 124.222 181.234 124.222 174.428V159.412H87.8367V174.428C87.8367 181.234 84.4023 187.313 79.2418 189.642L23.294 214.892L20.6638 219.335C44.277 241.664 70.9919 264.055 106.055 264.055Z" fill="#E09380"/>
<path d="M188.765 214.892L132.817 189.642C127.657 187.313 124.222 181.234 124.222 174.428V159.412H106.996V264.043C141.859 263.799 173.507 250.028 196.943 227.706L188.765 214.892Z" fill="#CC6D58"/>
<path d="M134.578 190.436C118.826 206.188 93.2865 206.188 77.534 190.436L77.5175 190.42L23.294 214.892L18.5438 222.915C44.1394 269.457 93.6333 301 150.5 301C151.959 301 153.412 300.974 154.861 300.933C170.398 272.955 184.207 239.836 196.943 227.705L188.765 214.892L134.578 190.436Z" fill="#E9EDF5"/>
<path d="M188.765 214.892L134.578 190.436C126.941 198.073 117.003 201.996 106.996 202.228V294.616C120.769 298.768 135.374 301 150.5 301C151.959 301 153.412 300.974 154.861 300.933C170.398 272.955 184.207 239.836 196.943 227.705L188.765 214.892Z" fill="#CDD2E1"/>
<path d="M150.5 301C193.787 301 232.798 282.719 260.254 253.464L248.402 214.316H161.975L136.114 300.312C140.85 300.761 145.647 301 150.5 301Z" fill="#FFCE00"/>
<path d="M260.254 253.464L248.402 214.316H205.174V290.747C226.257 282.519 245.033 269.682 260.254 253.464Z" fill="#FDBA12"/>
<path d="M161.975 214.316L154.883 237.901C168.583 246.945 186.091 252.386 205.189 252.386C224.304 252.386 241.828 246.935 255.534 237.874L248.402 214.316H161.975Z" fill="#FE6A16"/>
<path d="M255.534 237.874L248.402 214.316H205.174V252.386H205.189C224.304 252.386 241.828 246.934 255.534 237.874Z" fill="#F24500"/>
<path d="M160.536 223.356L154.262 221.716C142.981 218.768 136.949 205.43 141.707 193.956L156.019 159.44C159.673 150.629 168.595 145.886 177.258 148.15C187.204 150.749 193.324 161.598 190.926 172.382L182.887 208.537C180.489 219.321 170.482 225.956 160.536 223.356Z" fill="#FF9500"/>
<path d="M249.842 223.356L256.115 221.716C267.396 218.768 273.429 205.43 268.671 193.956L254.359 159.44C250.705 150.629 241.783 145.886 233.12 148.15C223.173 150.749 217.053 161.598 219.451 172.382L227.49 208.537C229.888 219.321 239.895 225.956 249.842 223.356Z" fill="#FE6A16"/>
<path d="M205.189 247.042C230.814 247.042 251.587 222.974 251.587 193.285C251.587 163.596 230.814 139.528 205.189 139.528C179.563 139.528 158.79 163.596 158.79 193.285C158.79 222.974 179.563 247.042 205.189 247.042Z" fill="#FFCE00"/>
<path d="M205.189 139.528C205.184 139.528 205.179 139.528 205.174 139.528V247.041H205.189C230.814 247.041 251.587 222.973 251.587 193.284C251.587 163.596 230.814 139.528 205.189 139.528Z" fill="#FDBA12"/>
<path d="M158.79 193.285C158.79 199.413 159.677 205.3 161.307 210.786C164.872 213.363 168.881 214.811 173.121 214.811C187.952 214.811 199.974 197.111 199.974 175.278C199.974 161.974 195.51 150.205 188.667 143.04C171.2 150.754 158.79 170.339 158.79 193.285Z" fill="white"/>
<path d="M205.189 248.523C214.967 248.523 222.895 242.768 222.895 235.669C222.895 228.57 214.967 222.815 205.189 222.815C195.41 222.815 187.482 228.57 187.482 235.669C187.482 242.768 195.41 248.523 205.189 248.523Z" fill="#414952"/>
<path d="M205.189 222.815C205.184 222.815 205.179 222.814 205.174 222.814V248.522H205.189C214.967 248.522 222.895 242.766 222.895 235.668C222.895 228.569 214.967 222.815 205.189 222.815Z" fill="#23272B"/>
<path d="M175.43 195.536C178.938 195.536 181.782 192.692 181.782 189.184C181.782 185.676 178.938 182.832 175.43 182.832C171.921 182.832 169.077 185.676 169.077 189.184C169.077 192.692 171.921 195.536 175.43 195.536Z" fill="#414952"/>
<path d="M234.948 195.536C238.456 195.536 241.3 192.692 241.3 189.184C241.3 185.676 238.456 182.832 234.948 182.832C231.44 182.832 228.596 185.676 228.596 189.184C228.596 192.692 231.44 195.536 234.948 195.536Z" fill="#23272B"/>
<path d="M176.749 85.7603C176.749 74.8332 185.608 65.9748 196.535 65.9748C203.534 65.9748 209.684 69.6092 213.201 75.0936C216.719 69.6092 222.869 65.9748 229.868 65.9748C240.795 65.9748 249.654 74.8332 249.654 85.7603C249.654 104.418 213.201 130.865 213.201 130.865C213.201 130.865 176.749 105.194 176.749 85.7603Z" fill="#FF7D81"/>
<path d="M229.869 65.9748C222.869 65.9748 216.719 69.6092 213.202 75.0936C213.173 75.0484 213.14 75.0054 213.11 74.9602V130.8C213.169 130.841 213.202 130.864 213.202 130.864C213.202 130.864 249.655 104.418 249.655 85.7597C249.654 74.8332 240.796 65.9748 229.869 65.9748Z" fill="#FF475A"/>
<path d="M58.2647 106.583V127.75C58.2647 146.147 68.5539 163 84.9184 171.407L95.962 177.079C102.851 180.618 111.024 180.618 117.913 177.079L128.956 171.407C145.321 163 155.61 146.147 155.61 127.749V106.583C155.61 79.7021 133.819 57.9108 106.937 57.9108C80.0566 57.9108 58.2647 79.7021 58.2647 106.583Z" fill="#FAA68E"/>
<path d="M106.996 57.9125V179.732C110.742 179.722 114.486 178.839 117.913 177.079L128.956 171.407C145.321 163 155.61 146.147 155.61 127.749V106.583C155.61 79.7215 133.85 57.9443 106.996 57.9125Z" fill="#D47F6C"/>
<path d="M122.522 37.7079H94.4052C71.7785 37.7079 53.4357 55.4857 53.4357 77.4164L53.4351 140.377H68.0184V103.662C71.1448 98.4746 74.0654 92.2148 75.9302 84.9855C75.9302 84.9855 110.171 110.486 144.716 116.871V140.377H159.299V118.309C160.572 118.312 161.839 118.28 163.097 118.21L163.491 77.7909C163.705 55.715 145.3 37.7085 122.522 37.7079Z" fill="#FFCE00"/>
<path d="M122.522 37.7079L106.996 37.7085V103.595C118.246 109.155 131.457 114.421 144.716 116.871V140.377H159.298V118.309C160.572 118.312 161.839 118.281 163.097 118.21L163.49 77.7915C163.705 55.715 145.3 37.7079 122.522 37.7079Z" fill="#FDBA12"/>
</svg>
